<?xml version="1.0" standalone="no"?>
<!DOCTYPE svg PUBLIC "-//W3C//DTD SVG 20010904//EN"
 "http://www.w3.org/TR/2001/REC-SVG-20010904/DTD/svg10.dtd">
<svg version="1.0" xmlns="http://www.w3.org/2000/svg"
 width="820.000000pt" height="737.000000pt" viewBox="0 0 820.000000 737.000000"
 preserveAspectRatio="xMidYMid meet">

<g transform="translate(0.000000,737.000000) scale(0.100000,-0.100000)"
fill="#000000" stroke="none">
<path d="M2678 6710 c-552 -3 -860 -9 -867 -15 -5 -5 -79 -106 -165 -224 -98
-135 -156 -223 -156 -238 0 -21 57 -148 356 -797 83 -179 102 -206 149 -206
33 0 49 11 171 115 81 69 273 233 304 259 14 11 73 62 131 111 118 101 329
280 554 471 408 346 465 397 471 420 6 25 -11 80 -28 90 -27 17 -136 19 -920
14z"/>
<path d="M4549 6700 c-23 -13 -42 -65 -35 -94 6 -24 32 -47 362 -328 264 -224
645 -549 779 -663 135 -115 192 -164 358 -303 155 -131 167 -124 298 163 50
110 136 297 191 415 152 326 154 332 136 368 -14 27 -132 192 -266 369 -29 39
-60 74 -69 77 -26 10 -1737 6 -1754 -4z"/>
<path d="M3670 6643 c0 -17 -5 -44 -10 -59 -13 -34 9 -14 -515 -459 -405 -344
-552 -469 -604 -513 -291 -249 -480 -406 -501 -414 -14 -5 -42 -7 -63 -5 -33
5 -36 3 -26 -10 33 -39 108 -55 151 -32 12 6 92 71 177 144 86 73 298 253 471
400 173 147 331 282 351 299 20 17 148 126 285 241 339 286 324 271 324 336 0
38 -6 61 -20 79 l-20 25 0 -32z"/>
<path d="M3990 6482 c-25 -20 -167 -140 -315 -267 -149 -126 -346 -294 -440
-374 -93 -80 -202 -172 -241 -205 -39 -34 -156 -133 -260 -221 -104 -88 -201
-172 -216 -187 -37 -35 -38 -89 -3 -123 l24 -25 1531 0 1531 0 25 27 c19 20
24 36 22 62 -3 39 -40 75 -373 356 -103 88 -241 205 -305 260 -65 55 -184 156
-265 225 -136 115 -338 287 -524 446 -92 79 -122 83 -191 26z"/>
<path d="M4590 6466 c0 -2 8 -10 18 -17 15 -13 16 -12 3 4 -13 16 -21 21 -21
13z"/>
<path d="M4670 6396 c0 -2 8 -10 18 -17 15 -13 16 -12 3 4 -13 16 -21 21 -21
13z"/>
<path d="M4760 6316 c0 -2 8 -10 18 -17 15 -13 16 -12 3 4 -13 16 -21 21 -21
13z"/>
<path d="M6680 6259 c6 -20 6 -46 1 -64 -7 -25 -89 -205 -247 -545 -19 -41
-70 -151 -113 -245 -63 -138 -84 -174 -111 -192 -39 -27 -95 -30 -130 -7 -14
8 -7 -1 14 -20 60 -55 128 -60 180 -13 38 34 456 950 456 1000 0 40 -19 85
-44 106 -13 11 -14 9 -6 -20z"/>
<path d="M4860 6236 c0 -2 8 -10 18 -17 15 -13 16 -12 3 4 -13 16 -21 21 -21
13z"/>
<path d="M4945 6160 c10 -11 20 -20 23 -20 3 0 -3 9 -13 20 -10 11 -20 20 -23
20 -3 0 3 -9 13 -20z"/>
<path d="M5010 6107 c0 -2 24 -24 53 -48 28 -24 46 -36 38 -26 -16 20 -91 81
-91 74z"/>
<path d="M5215 5930 c10 -11 20 -20 23 -20 3 0 -3 9 -13 20 -10 11 -20 20 -23
20 -3 0 3 -9 13 -20z"/>
<path d="M1187 5836 c-12 -13 -123 -162 -246 -332 -248 -340 -254 -352 -197
-400 l27 -24 394 0 394 0 27 24 c21 17 28 32 27 57 0 39 -273 640 -306 677
-29 31 -90 31 -120 -2z"/>
<path d="M6836 5838 c-15 -14 -65 -110 -121 -233 -53 -115 -119 -258 -146
-317 -27 -59 -49 -116 -49 -127 0 -10 12 -33 26 -50 l26 -31 396 0 c418 1 416
0 440 47 25 46 19 58 -132 264 -39 53 -123 168 -186 255 -63 87 -127 171 -142
186 -33 35 -77 37 -112 6z"/>
<path d="M5330 5836 c0 -2 8 -10 18 -17 15 -13 16 -12 3 4 -13 16 -21 21 -21
13z"/>
<path d="M1393 5770 c13 -30 39 -85 56 -122 34 -73 54 -119 151 -331 60 -133
62 -141 51 -178 -14 -47 -55 -87 -96 -94 -16 -4 -206 -5 -422 -3 -406 3 -418
2 -339 -36 50 -23 801 -24 846 -1 36 19 60 62 60 109 0 39 -279 657 -312 691
-17 18 -17 14 5 -35z"/>
<path d="M5400 5776 c0 -2 8 -10 18 -17 15 -13 16 -12 3 4 -13 16 -21 21 -21
13z"/>
<path d="M5480 5705 c13 -14 26 -25 28 -25 3 0 -5 11 -18 25 -13 14 -26 25
-28 25 -3 0 5 -11 18 -25z"/>
<path d="M5620 5585 c13 -14 26 -25 28 -25 3 0 -5 11 -18 25 -13 14 -26 25
-28 25 -3 0 5 -11 18 -25z"/>
<path d="M5660 5556 c0 -2 8 -10 18 -17 15 -13 16 -12 3 4 -13 16 -21 21 -21
13z"/>
<path d="M5755 5470 c10 -11 20 -20 23 -20 3 0 -3 9 -13 20 -10 11 -20 20 -23
20 -3 0 3 -9 13 -20z"/>
<path d="M7270 5466 c0 -2 8 -10 18 -17 15 -13 16 -12 3 4 -13 16 -21 21 -21
13z"/>
<path d="M5800 5437 c0 -2 15 -16 33 -33 l32 -29 -29 33 c-28 30 -36 37 -36
29z"/>
<path d="M5930 5326 c0 -2 8 -10 18 -17 15 -13 16 -12 3 4 -13 16 -21 21 -21
13z"/>
<path d="M7370 5326 c0 -2 8 -10 18 -17 15 -13 16 -12 3 4 -13 16 -21 21 -21
13z"/>
<path d="M6025 5240 c10 -11 20 -20 23 -20 3 0 -3 9 -13 20 -10 11 -20 20 -23
20 -3 0 3 -9 13 -20z"/>
<path d="M5688 5178 c4 -49 -26 -104 -68 -125 -20 -10 -345 -12 -1562 -10
l-1538 2 25 -25 25 -25 1550 0 1549 0 30 29 c49 47 53 113 8 169 l-22 28 3
-43z"/>
<path d="M7456 5190 c8 -49 -17 -105 -58 -130 -32 -20 -46 -20 -441 -18 l-408
3 28 -22 c15 -13 42 -25 58 -28 17 -3 204 -5 417 -3 l386 3 26 24 c52 49 57
120 11 176 l-24 30 5 -35z"/>
<path d="M752 4737 c-39 -41 -30 -85 35 -168 31 -41 120 -157 198 -259 166
-218 315 -411 406 -530 70 -91 257 -335 644 -840 133 -173 398 -520 590 -770
192 -250 371 -484 398 -520 79 -104 107 -130 142 -130 39 0 85 45 85 82 0 14
-40 113 -89 219 -49 107 -138 302 -199 434 -60 132 -149 326 -197 430 -48 105
-138 300 -200 435 -169 367 -493 1072 -622 1355 -63 138 -123 258 -134 268
-20 16 -60 17 -528 17 l-508 0 -21 -23z"/>
<path d="M2230 4735 c-16 -17 -24 -37 -23 -58 0 -19 63 -167 157 -372 87 -187
193 -416 236 -510 147 -319 368 -800 393 -855 13 -30 65 -143 114 -250 50
-107 155 -334 233 -505 78 -170 182 -395 230 -500 48 -104 102 -222 120 -261
221 -488 309 -670 332 -687 38 -28 91 -17 116 26 11 18 136 284 277 592 141
308 310 675 375 815 64 140 128 278 140 305 12 28 62 136 110 240 49 105 141
305 205 445 121 263 303 660 546 1186 149 323 158 353 116 392 l-23 22 -1815
0 -1816 0 -23 -25z"/>
<path d="M6331 4743 c-21 -18 -48 -74 -311 -648 -207 -451 -552 -1201 -750
-1630 -48 -104 -153 -333 -234 -507 -88 -191 -146 -329 -146 -348 0 -61 83
-104 131 -67 13 10 71 84 350 447 27 36 108 142 180 235 72 94 175 229 230
300 96 127 184 242 318 415 57 74 466 608 705 920 44 58 103 134 130 170 303
391 476 626 476 644 0 21 -24 64 -44 78 -6 4 -237 8 -512 8 -463 0 -503 -1
-523 -17z"/>
<path d="M1888 4689 c11 -24 88 -192 172 -374 84 -181 238 -517 343 -745 104
-228 229 -500 277 -605 260 -566 375 -816 486 -1060 73 -160 124 -283 124
-301 0 -76 -92 -142 -163 -116 l-32 11 32 -29 c60 -55 131 -52 182 6 48 54 45
77 -34 249 -136 295 -748 1625 -790 1715 -29 63 -92 201 -140 305 -48 105 -99
215 -113 245 -49 108 -201 436 -235 510 -19 41 -48 104 -64 140 -35 77 -76
123 -45 49z"/>
<path d="M7445 4698 c3 -18 2 -45 -4 -59 -5 -14 -94 -136 -197 -270 -103 -134
-222 -289 -264 -344 -42 -55 -112 -146 -156 -203 -43 -57 -142 -186 -219 -286
-77 -101 -264 -345 -415 -542 -151 -197 -311 -406 -355 -464 -45 -58 -138
-179 -208 -270 -130 -168 -145 -188 -334 -435 -224 -294 -250 -324 -288 -331
-19 -3 -46 -3 -60 0 -36 9 -31 -9 9 -33 46 -29 115 -28 147 2 13 12 123 152
244 310 121 159 269 353 329 430 205 267 851 1110 901 1176 28 36 199 260 380
496 181 237 365 477 409 535 44 58 90 117 102 132 33 41 39 90 15 137 -28 54
-44 63 -36 19z"/>
<path d="M5970 4680 c0 -39 -27 -101 -337 -770 -53 -113 -103 -223 -113 -245
-10 -22 -164 -357 -343 -745 -178 -388 -431 -937 -562 -1220 -490 -1065 -445
-974 -496 -1000 -36 -19 -48 -21 -78 -11 -47 14 -49 8 -8 -23 66 -51 153 -41
189 22 9 15 81 169 161 342 79 173 197 430 262 570 65 140 191 415 280 610
170 370 503 1095 802 1745 282 610 293 636 293 669 0 28 -32 96 -45 96 -3 0
-5 -18 -5 -40z"/>
</g>
</svg>
